<svg width="25" height="14" viewBox="0 0 25 14" fill="none" xmlns="http://www.w3.org/2000/svg">
<path d="M12.5 0.5C6.81818 0.5 1.96591 3.19533 0 7C1.96591 10.8047 6.81818 13.5 12.5 13.5C18.1818 13.5 23.0341 10.8047 25 7C23.0341 3.19533 18.1818 0.5 12.5 0.5ZM12.5 11.3333C9.36364 11.3333 6.81818 9.392 6.81818 7C6.81818 4.608 9.36364 2.66667 12.5 2.66667C15.6364 2.66667 18.1818 4.608 18.1818 7C18.1818 9.392 15.6364 11.3333 12.5 11.3333ZM12.5 4.4C10.6136 4.4 9.09091 5.56133 9.09091 7C9.09091 8.43867 10.6136 9.6 12.5 9.6C14.3864 9.6 15.9091 8.43867 15.9091 7C15.9091 5.56133 14.3864 4.4 12.5 4.4Z" fill="#585CE5"/>
</svg>
