<svg width="25" height="25" viewBox="0 0 25 25" fill="none" xmlns="http://www.w3.org/2000/svg">
<g clip-path="url(#clip0_1_239)">
<path d="M9.37502 21.875H18.75C19.6146 21.875 20.3542 21.3541 20.6667 20.6041L23.8125 13.2604C23.9063 13.0208 23.9584 12.7708 23.9584 12.5V10.4166C23.9584 9.27079 23.0209 8.33329 21.875 8.33329H15.3021L16.2917 3.57288L16.3229 3.23954C16.3229 2.81246 16.1459 2.41663 15.8646 2.13538L14.7604 1.04163L7.89585 7.90621C7.52085 8.28121 7.29169 8.80204 7.29169 9.37496V19.7916C7.29169 20.9375 8.22919 21.875 9.37502 21.875ZM9.37502 9.37496L13.8959 4.85413L12.5 10.4166H21.875V12.5L18.75 19.7916H9.37502V9.37496ZM1.04169 9.37496H5.20835V21.875H1.04169V9.37496Z" fill="black"/>
</g>
<defs>
<clipPath id="clip0_1_239">
<rect width="25" height="25" fill="white"/>
</clipPath>
</defs>
</svg>
